<svg width="163" height="53" viewBox="0 0 163 53" fill="none" xmlns="http://www.w3.org/2000/svg">
<path d="M106.092 26.1688C107.97 26.1688 109.412 26.6988 110.418 27.7588C111.424 28.8188 111.927 30.4806 111.927 32.7441V44.52H110.387V32.8435C110.387 31.0547 110.008 29.7408 109.248 28.9016C108.488 28.0624 107.385 27.6428 105.938 27.6428C104.1 27.6428 102.694 28.2225 101.719 29.3819C100.754 30.5302 100.271 32.2693 100.271 34.5991V44.52H98.7163V26.5166H99.9789L100.21 29.796H100.302C100.6 29.1224 101.005 28.5151 101.519 27.9741C102.042 27.422 102.684 26.9859 103.443 26.6657C104.203 26.3344 105.086 26.1688 106.092 26.1688Z" fill="#0F172A"/>
<path d="M118.933 44.52H117.362V18.7488H118.933V44.52Z" fill="#0F172A"/>
<path d="M126.047 26.5166V44.52H124.491V26.5166H126.047ZM125.292 19.8585C125.682 19.8585 125.97 19.9854 126.154 20.2394C126.339 20.4823 126.431 20.8136 126.431 21.2332C126.431 21.6527 126.339 21.984 126.154 22.2269C125.97 22.4698 125.682 22.5913 125.292 22.5913C124.923 22.5913 124.645 22.4698 124.461 22.2269C124.276 21.984 124.183 21.6527 124.183 21.2332C124.183 20.8136 124.276 20.4823 124.461 20.2394C124.645 19.9854 124.923 19.8585 125.292 19.8585Z" fill="#0F172A"/>
<path d="M139.011 26.1688C140.89 26.1688 142.332 26.6988 143.338 27.7588C144.344 28.8188 144.847 30.4806 144.847 32.7441V44.52H143.307V32.8435C143.307 31.0547 142.927 29.7408 142.168 28.9016C141.408 28.0624 140.304 27.6428 138.857 27.6428C137.02 27.6428 135.613 28.2225 134.638 29.3819C133.673 30.5302 133.191 32.2693 133.191 34.5991V44.52H131.636V26.5166H132.898L133.129 29.796H133.222C133.519 29.1224 133.925 28.5151 134.438 27.9741C134.962 27.422 135.603 26.9859 136.363 26.6657C137.122 26.3344 138.005 26.1688 139.011 26.1688Z" fill="#0F172A"/>
<path d="M156.61 26.1688C158.037 26.1688 159.223 26.5276 160.167 27.2453C161.122 27.9631 161.83 28.9458 162.292 30.1935C162.764 31.4412 163 32.8711 163 34.4832V35.6922H150.913C150.913 38.1656 151.442 40.0647 152.499 41.3897C153.567 42.7147 155.091 43.3772 157.072 43.3772C158.109 43.3772 159.007 43.2889 159.767 43.1122C160.536 42.9245 161.388 42.6098 162.323 42.1682V43.7085C161.501 44.106 160.68 44.3931 159.859 44.5697C159.038 44.7574 158.093 44.8513 157.026 44.8513C155.332 44.8513 153.911 44.4759 152.761 43.725C151.621 42.9632 150.759 41.8921 150.174 40.5119C149.599 39.1317 149.312 37.5196 149.312 35.6757C149.312 33.8759 149.589 32.2583 150.143 30.8228C150.708 29.3874 151.529 28.2557 152.607 27.4275C153.695 26.5884 155.029 26.1688 156.61 26.1688ZM156.595 27.6097C154.993 27.6097 153.695 28.1839 152.699 29.3322C151.714 30.4695 151.134 32.1147 150.959 34.2678H161.383C161.383 32.9539 161.209 31.7945 160.86 30.7897C160.511 29.7849 159.982 29.0065 159.274 28.4544C158.576 27.8913 157.683 27.6097 156.595 27.6097Z" fill="#0F172A"/>
<path d="M93 27.469C93 30.0754 92.6463 32.4542 91.9388 34.6055C91.2313 36.7361 90.1815 38.5771 88.7894 40.1285C87.3973 41.68 85.6629 42.8797 83.5861 43.7278C81.5322 44.5759 79.1359 45 76.3973 45C73.7956 45 71.4793 44.5863 69.4481 43.7589C67.417 42.9108 65.694 41.711 64.279 40.1596C62.8869 38.6082 61.8257 36.7671 61.0954 34.6365C60.3651 32.4852 60 30.096 60 27.469C60 23.849 60.6618 20.7358 61.9855 18.1294C63.332 15.5024 65.249 13.4959 67.7365 12.1099C70.2469 10.7033 73.2479 10 76.7396 10C80.3454 10 83.3465 10.7447 85.7427 12.234C88.1618 13.7027 89.9761 15.7506 91.1857 18.3777C92.3952 21.0047 93 24.0352 93 27.469ZM63.5602 27.469C63.5602 30.427 64.028 33.0127 64.9637 35.2261C65.8994 37.4394 67.3143 39.1667 69.2085 40.4078C71.1255 41.6489 73.5446 42.2695 76.4658 42.2695C79.4554 42.2695 81.9087 41.6489 83.8257 40.4078C85.7427 39.1667 87.1577 37.4291 88.0705 35.195C88.9834 32.961 89.4398 30.3856 89.4398 27.469C89.4398 24.635 89.0062 22.1114 88.139 19.8981C87.2718 17.6847 85.9025 15.9471 84.0311 14.6853C82.1598 13.4028 79.7178 12.7615 76.7054 12.7615C72.3921 12.7615 69.1172 14.0647 66.8807 16.6711C64.667 19.2775 63.5602 22.8768 63.5602 27.469Z" fill="#0D9488"/>
<path fill-rule="evenodd" clip-rule="evenodd" d="M47 53V0L48.9708 0V53H47Z" fill="#0F172A"/>
<path d="M37 47H33.0417L18.5168 29.6389L3.79057 47H0L16.5041 27.7661L1.47597 10H5.40073L18.651 25.9186L32.0018 10H35.7924L20.6636 27.7408L37 47Z" fill="#EA580C"/>
</svg>
